<?xml version="1.0" encoding="utf-8"?>
<!-- Generator: Adobe Illustrator 22.0.0, SVG Export Plug-In . SVG Version: 6.00 Build 0)  -->
<svg version="1.1" id="Layer_1" xmlns="http://www.w3.org/2000/svg" xmlns:xlink="http://www.w3.org/1999/xlink" x="0px" y="0px"
	 viewBox="0 0 512 512" style="enable-background:new 0 0 512 512;" xml:space="preserve">
<style type="text/css">
	.st0{fill:#2A2A2A;}
	.st1{fill:#010101;}
</style>
<g id="g4612" transform="translate(0,-212)">
	<path id="path4584" class="st0" d="M255,212c-63.8-0.1-121.1,21.2-169.9,65.1C34,323,5.3,380.9,0.7,449.7
		C-4.1,521.8,17,585.9,65.5,639.5c50.7,55.9,114.5,84.1,190.1,84.4c143.1,1.6,248.4-114.1,255.7-236.8
		c4.4-72.1-16.1-136.1-64.4-190.1c-45.8-51-103.5-79.7-171.9-84.4C268.3,212.3,261.6,212,255,212L255,212z M255.6,285.6
		c2.5,0,5.1,0.9,7.5,2.6c18.9,13.7,37.8,27.4,56.6,41.4c16.2,12,32.2,24.3,48.4,36.2c4.8,3.7,10.5,6.2,15.3,11.9H254.7H126.6
		c18.3-13.7,36.2-27.3,54.5-40.7c22.3-16.4,44.6-32.9,67.3-49C250.5,286.4,253,285.6,255.6,285.6z M112.4,385.4
		c0.8,0,1.5,0.1,2.3,0.1h278.7c3.6,0,7.1,0.2,10.5,1.4c5.1,1.6,9.1,7.3,8.5,12c-0.6,5.2-5.9,10-11.6,10.1c-16.2,0.1-32.5,0-48.7,0
		h-96.7H111.9c-3.1,0-6.1-0.1-8.6-2c-3.7-2.9-6.3-6.8-5.2-11.7c1.5-6.2,6.6-8.4,12.1-9.6C110.9,385.4,111.7,385.4,112.4,385.4
		L112.4,385.4z M115,416.2c1.5,0.1,3.3,0.6,4.6,0.5c7.9-0.2,16,0,24,0c9.3,0,18.6,0.1,28-0.1c3.7-0.1,4.8,1.1,4.6,4.8
		c-0.2,6.6-5.1,11.9-12.2,12.1c-13.3,0.2-26.4,0.2-39.6-0.1c-3.1-0.1-6.7-1.1-8.8-3.1c-3.4-2.9-5.4-7.7-4-12.1
		C112.1,416.5,113.4,416.2,115,416.2L115,416.2z M283.2,416.6c4.5-0.2,5,1.9,4.6,5.4c-0.7,5.7-6.6,11.4-12.5,11.6
		c-13,0.2-25.9,0.2-39,0c-8.2-0.2-13.4-5.4-13.7-12.1c-0.1-3.6,0.9-4.9,4.6-4.8c9.4,0.1,18.7,0,28,0
		C264.6,416.7,273.9,417,283.2,416.6L283.2,416.6z M347.1,416.7c6.7,0,13.3,0,19.9,0h27.2c5.2,0,7.2,2.5,5.2,6.9
		c-2.6,5.6-6.3,10-13.2,10h-39.5c-5.8,0-9.2-4-11.6-8.4c-2.7-4.9-0.1-8.5,5.3-8.5C342.6,416.7,344.9,416.7,347.1,416.7L347.1,416.7z
		 M129,441.2c10,0.3,19.9,0.1,29.9,0.1c4.4,0,5.4,0.9,4.8,6.1c-1.2,9.6-0.7,19.5-0.3,29.1c0.2,5.7-0.5,11.6,0.1,17
		c0.9,9.3-0.8,18.2-0.3,27.4c0.5,8.6,0,17.3,0.1,26c0.1,3.5-0.7,5-4.6,4.9c-10-0.2-19.9-0.2-29.9,0c-3.9,0.1-4.8-1.2-4.6-4.9
		c0.1-16.7,0.1-33.5,0.1-50.4c0-16.7,0.1-33.3-0.1-50.1C124,442.6,124.8,441.1,129,441.2L129,441.2z M381.5,441.2
		c3.7-0.1,5.2,0.7,5.2,5c-0.2,33.5-0.1,67.2-0.1,100.8c0,2.6,0.5,5.1-3.7,5c-11.8-0.1-23.7,0-36.4,0c1.5-2.8,1.1-5,1.1-7.1v-92.1
		c0-11.3,0-11.3,11.1-11.3C366.3,441.3,373.9,441.5,381.5,441.2L381.5,441.2z M239.4,441.3c0.4,0,0.9,0,1.4,0
		c9.7,0.3,19.5,0.2,29.2,0c3.4-0.1,5,0.6,5,4.5c-0.1,33.9-0.1,67.7,0,101.6c0,3.7-1.1,4.8-4.8,4.6c-9.5-0.2-19-0.3-28.5,0
		c-4.4,0.1-5.9-0.9-5.9-5.7c0.2-16.7,0.1-33.3,0.1-50c0-16.7,0.1-33.3-0.1-50C235.8,443,236.5,441.5,239.4,441.3L239.4,441.3z
		 M165.2,559.6c5.9-0.1,8.5,3.9,10.5,7.8c2.5,4.9,0.1,7.9-5.4,7.9h-27.4c-9.1,0-18.2-0.2-27.3,0.1c-4.6,0.2-5-2-4.5-5.4
		c0.6-5.3,5.9-10.2,11.2-10.3C136.6,559.8,150.9,560,165.2,559.6z M387.4,559.8c4.3,0,7.4,1.9,10,5c2.3,2.6,3.2,5.9,2,9.1
		s-4.5,1.5-6.8,1.6c-8.4,0.1-16.9,0-25.4,0c-9.3,0-18.7-0.2-28,0.1c-4.5,0.2-5.1-1.8-4.6-5.3c0.6-5.3,5.8-10.3,11.2-10.3
		C359.7,559.9,373.6,560,387.4,559.8z M234.4,559.9h42.1c5.3,0,10.8,4.8,11.4,10c0.5,3.7-0.2,5.9-5,5.7c-9.2-0.3-18.2-0.1-27.3-0.1
		c-9.3,0-18.6-0.3-27.9,0.1c-4.8,0.2-5.4-2-4.9-5.7C223.6,564.6,229.1,559.9,234.4,559.9z M114.4,583.1h133.2h148.1
		c11,0,15.6,4.8,15.6,15.9c0,12.8,1.4,11.4-11.4,11.4c-47.3,0.1-94.8,0.1-142.1,0.1H115.5c-1.1,0-2.2,0.1-3.3,0
		c-4.3-0.5-11.6,0.8-12.2-2.5c-1.2-6-2.8-13,1.7-19.3C105,584.2,109.3,583.1,114.4,583.1L114.4,583.1z"/>
	<path id="path4586" class="st1" d="M255.9,238.2c-27.1,1.4-53.7,6.7-79.2,16.7c-31.6,12.5-60.5,29.4-84.3,53.8
		c-17.9,18.5-31.6,40.2-42.4,63.6c-14.6,31.7-23.9,64.8-23.2,99.9c0.5,26,6.7,51,16.2,75.3c12.2,31.4,29.1,60.2,53.2,83.9
		c18.7,18.4,40.8,32.2,64.6,43.2c31.4,14.5,64.3,23.7,99.1,23c25.9-0.6,51-6.7,75.2-16.2c31.4-12.4,60-29.1,83.8-53.3
		c18.3-18.6,32.2-40.7,43.1-64.5c14.6-31.7,23.9-64.8,23.1-99.9c-0.6-26-6.8-51.1-16.3-75.3c-12.6-31.5-29.4-60.4-53.9-84.2
		c-18.5-17.9-40.2-31.5-63.5-42.4C321.3,247.7,289.6,240,255.9,238.2L255.9,238.2z M255.6,285.6c2.5,0,5.1,0.9,7.5,2.6
		c18.9,13.7,37.8,27.4,56.6,41.4c16.2,12,32.2,24.3,48.4,36.2c4.8,3.7,10.5,6.2,15.3,11.9H254.7H126.6
		c18.3-13.7,36.2-27.3,54.5-40.7c22.3-16.4,44.6-32.9,67.3-49C250.5,286.4,253,285.6,255.6,285.6z M112.4,385.4
		c0.8,0,1.5,0.1,2.3,0.1h278.7c3.6,0,7.1,0.2,10.5,1.4c5.1,1.6,9.1,7.3,8.5,12c-0.6,5.2-5.9,10-11.6,10.1c-16.2,0.1-32.5,0-48.7,0
		h-96.7H111.9c-3.1,0-6.1-0.1-8.6-2c-3.7-2.9-6.3-6.8-5.2-11.7c1.5-6.2,6.6-8.4,12.1-9.6C110.9,385.4,111.7,385.4,112.4,385.4
		L112.4,385.4z M115,416.2c1.5,0.1,3.3,0.6,4.6,0.5c7.9-0.2,16,0,24,0c9.3,0,18.6,0.1,28-0.1c3.7-0.1,4.8,1.1,4.6,4.8
		c-0.2,6.6-5.1,11.9-12.2,12.1c-13.3,0.2-26.4,0.2-39.6-0.1c-3.1-0.1-6.7-1.1-8.8-3.1c-3.4-2.9-5.4-7.7-4-12.1
		C112.1,416.5,113.4,416.2,115,416.2L115,416.2z M283.2,416.6c4.5-0.2,5,1.9,4.6,5.4c-0.7,5.7-6.6,11.4-12.5,11.6
		c-13,0.2-25.9,0.2-39,0c-8.2-0.2-13.4-5.4-13.7-12.1c-0.1-3.6,0.9-4.9,4.6-4.8c9.4,0.1,18.7,0,28,0
		C264.6,416.7,273.9,417,283.2,416.6L283.2,416.6z M347.1,416.7c6.7,0,13.3,0,19.9,0h27.2c5.2,0,7.2,2.5,5.2,6.9
		c-2.6,5.6-6.3,10-13.2,10h-39.5c-5.8,0-9.2-4-11.6-8.4c-2.7-4.9-0.1-8.5,5.3-8.5C342.6,416.7,344.9,416.7,347.1,416.7L347.1,416.7z
		 M129,441.2c10,0.3,19.9,0.1,29.9,0.1c4.4,0,5.4,0.9,4.8,6.1c-1.2,9.6-0.7,19.5-0.3,29.1c0.2,5.7-0.5,11.6,0.1,17
		c0.9,9.3-0.8,18.2-0.3,27.4c0.5,8.6,0,17.3,0.1,26c0.1,3.5-0.7,5-4.6,4.9c-10-0.2-19.9-0.2-29.9,0c-3.9,0.1-4.8-1.2-4.6-4.9
		c0.1-16.7,0.1-33.5,0.1-50.4c0-16.7,0.1-33.3-0.1-50.1C124,442.6,124.8,441.1,129,441.2L129,441.2z M381.5,441.2
		c3.7-0.1,5.2,0.7,5.2,5c-0.2,33.5-0.1,67.2-0.1,100.8c0,2.6,0.5,5.1-3.7,5c-11.8-0.1-23.7,0-36.4,0c1.5-2.8,1.1-5,1.1-7.1v-92.1
		c0-11.3,0-11.3,11.1-11.3C366.3,441.3,373.9,441.5,381.5,441.2L381.5,441.2z M239.4,441.3c0.4,0,0.9,0,1.4,0
		c9.7,0.3,19.5,0.2,29.2,0c3.4-0.1,5,0.6,5,4.5c-0.1,33.9-0.1,67.7,0,101.6c0,3.7-1.1,4.8-4.8,4.6c-9.5-0.2-19-0.3-28.5,0
		c-4.4,0.1-5.9-0.9-5.9-5.7c0.2-16.7,0.1-33.3,0.1-50c0-16.7,0.1-33.3-0.1-50C235.8,443,236.5,441.5,239.4,441.3L239.4,441.3z
		 M165.2,559.6c5.9-0.1,8.5,3.9,10.5,7.8c2.5,4.9,0.1,7.9-5.4,7.9h-27.4c-9.1,0-18.2-0.2-27.3,0.1c-4.6,0.2-5-2-4.5-5.4
		c0.6-5.3,5.9-10.2,11.2-10.3C136.6,559.8,150.9,560,165.2,559.6z M387.4,559.8c4.3,0,7.4,1.9,10,5c2.3,2.6,3.2,5.9,2,9.1
		s-4.5,1.5-6.8,1.6c-8.4,0.1-16.9,0-25.4,0c-9.3,0-18.7-0.2-28,0.1c-4.5,0.2-5.1-1.8-4.6-5.3c0.6-5.3,5.8-10.3,11.2-10.3
		C359.7,559.9,373.6,560,387.4,559.8z M234.4,559.9h42.1c5.3,0,10.8,4.8,11.4,10c0.5,3.7-0.2,5.9-5,5.7c-9.2-0.3-18.2-0.1-27.3-0.1
		c-9.3,0-18.6-0.3-27.9,0.1c-4.8,0.2-5.4-2-4.9-5.7C223.6,564.6,229.1,559.9,234.4,559.9z M114.4,583.1h133.2h148.1
		c11,0,15.6,4.8,15.6,15.9c0,12.8,1.4,11.4-11.4,11.4c-47.3,0.1-94.8,0.1-142.1,0.1H115.5c-1.1,0-2.2,0.1-3.3,0
		c-4.3-0.5-11.6,0.8-12.2-2.5c-1.2-6-2.8-13,1.7-19.3C105,584.2,109.3,583.1,114.4,583.1L114.4,583.1z"/>
</g>
</svg>
