<!--
<svg width="300" viewBox="0 0 300 300">
  <defs>
    <linearGradient id="grad1" x1="25%" y1="25%" x2="75%" y2="125%">
      <stop offset="0%" stop-color="#005d33"/>
      <stop offset="5%" stop-color="#005d33"/>
      <stop offset="5%" stop-color="#007c44"/>
      <stop offset="10%" stop-color="#007c44"/>
      <stop offset="10%" stop-color="#005d33"/>
      <stop offset="15%" stop-color="#005d33"/>
      <stop offset="15%" stop-color="#007c44"/>
      <stop offset="20%" stop-color="#007c44"/>
      <stop offset="20%" stop-color="#005d33"/>
      <stop offset="25%" stop-color="#005d33"/>
      <stop offset="25%" stop-color="#007c44"/>
      <stop offset="30%" stop-color="#007c44"/>
      <stop offset="30%" stop-color="#005d33"/>
      <stop offset="35%" stop-color="#005d33"/>
      <stop offset="35%" stop-color="#007c44"/>
      <stop offset="40%" stop-color="#007c44"/>
      <stop offset="40%" stop-color="#005d33"/>
      <stop offset="45%" stop-color="#005d33"/>
      <stop offset="45%" stop-color="#007c44"/>
      <stop offset="50%" stop-color="#007c44"/>
      <stop offset="50%" stop-color="#005d33"/>
      <stop offset="55%" stop-color="#005d33"/>
      <stop offset="55%" stop-color="#007c44"/>
      <stop offset="60%" stop-color="#007c44"/>
      <stop offset="60%" stop-color="#005d33"/>
      <stop offset="65%" stop-color="#005d33"/>
      <stop offset="65%" stop-color="#007c44"/>
      <stop offset="70%" stop-color="#007c44"/>
      <stop offset="70%" stop-color="#005d33"/>
      <stop offset="75%" stop-color="#005d33"/>
      <stop offset="75%" stop-color="#007c44"/>
      <stop offset="80%" stop-color="#007c44"/>
      <stop offset="80%" stop-color="#005d33"/>
      <stop offset="85%" stop-color="#005d33"/>
      <stop offset="85%" stop-color="#007c44"/>
      <stop offset="90%" stop-color="#007c44"/>
      <stop offset="90%" stop-color="#005d33"/>
      <stop offset="95%" stop-color="#005d33"/>
      <stop offset="95%" stop-color="#007c44"/>
      <stop offset="100%" stop-color="#007c44"/>
      
      <animate attributeName="x1" dur="5s" values="25%; 0%" repeatCount="indefinite" />
      <animate attributeName="y1" dur="5s" values="25%; 0%" repeatCount="indefinite" />
      <animate attributeName="x2" dur="5s" values="75%; 50%" repeatCount="indefinite" />
      <animate attributeName="y2" dur="5s" values="125%; 100%" repeatCount="indefinite" />
      
    </linearGradient>
  </defs>
  <style
     type="text/css"
     id="style4582">
	.st0{fill:#141414;}
	.st1{fill:#080808;}
	.st2{fill:#FFFFFF;}
	</style>
  <circle cx="150" cy="150" r="150" fill="url(#grad1)" />
  <rect x="50" y="40" width="100" height="200" fill="#fff"/>
  <rect x="150" y="40" width="100px" height="200" fill="#fff">
    <animate attributeName="fill" dur="20s" 
             values="rgba(255, 255, 255, 1); 
                     rgba(255, 255, 255, 1); 
                     rgba(255, 255, 255, 0); 
                     rgba(255, 255, 255, 0); 
                     rgba(255, 255, 255, 1); 
                     rgba(255, 255, 255, 1)" 
             keytimes="0.0;
                       0.07;
                       0.1;
                       0.8;
                       0.83;
                       1.0"
             repeatCount="indefinite"/>
  </rect>
	<g
     id="g4612"
     transform="translate(0,-212)">
		<path
		   inkscape:connector-curvature="0"
		   d="M 149.44006,212.0002 C 112.04244,211.94313 78.511805,224.44174 49.886788,250.13989 19.893144,277.03548 3.1049251,310.97093 0.38426274,351.28111 -2.4027572,393.51714 9.9402786,431.10456 38.407697,462.51595 c 29.728212,32.73956 67.087813,49.27537 111.414703,49.4746 83.87602,0.92972 145.52148,-66.87398 149.83472,-138.72837 2.58795,-42.23604 -9.42304,-79.75652 -37.75774,-111.36714 -26.80848,-29.88399 -60.65009,-46.68543 -100.73009,-49.4746 -3.95035,-0.27394 -7.86051,-0.41434 -11.72923,-0.42024 z m 0.30717,43.13722 c 1.48475,0.0166 2.9949,0.51493 4.38841,1.51106 11.08172,8.03547 22.16345,16.07094 33.17881,24.23923 9.48914,7.03934 18.84505,14.21176 28.33418,21.18469 2.78702,2.19149 6.17126,3.65249 8.95828,6.97293 H 149.22492 74.174711 c 10.749934,-8.03547 21.234179,-16.00479 31.917759,-23.84104 13.07245,-9.62928 26.14516,-19.25805 39.41668,-28.68811 1.29397,-0.92972 2.75332,-1.39536 4.23808,-1.37876 z m -83.867221,58.44887 c 0.447914,0.008 0.895828,0.0415 1.327152,0.0415 H 230.513 c 2.12344,0 4.17975,0.1323 6.17048,0.79639 2.9861,0.92972 5.30861,4.24991 4.97682,7.03908 -0.33178,3.05481 -3.45007,5.84424 -6.76796,5.91065 -9.48914,0.0664 -19.04463,0 -28.53377,0 H 149.6889 65.548221 c -1.791656,0 -3.584347,-0.0669 -5.044214,-1.19588 -2.189802,-1.72663 -3.715768,-3.98376 -3.052192,-6.83934 0.862649,-3.65248 3.849518,-4.91425 7.101041,-5.64475 0.431325,-0.0996 0.879239,-0.11596 1.327153,-0.10766 z m 1.476198,18.07956 c 0.895828,0.0415 1.907264,0.32374 2.703555,0.29054 4.645034,-0.13282 9.357201,0 14.068592,0 5.441324,0 10.882131,0.0667 16.389816,-0.0661 2.1898,-0.0664 2.78676,0.66357 2.7204,2.78866 -0.13271,3.85171 -2.98532,6.97241 -7.165845,7.10523 -7.763841,0.13282 -15.461325,0.13307 -23.225166,-0.0661 -1.791656,-0.0664 -3.915617,-0.66357 -5.176412,-1.79252 -1.990729,-1.72663 -3.185166,-4.51658 -2.322517,-7.10652 0.331788,-0.99613 1.111749,-1.19458 2.007577,-1.15308 z m 98.590313,0.22439 c 2.65431,-0.13282 2.91948,1.12817 2.7204,3.18684 -0.39814,3.32045 -3.84874,6.70808 -7.29933,6.77449 -7.63113,0.13281 -15.19486,0.13281 -22.82599,0 -4.77775,-0.13282 -7.83123,-3.18841 -8.03031,-7.10653 -0.0663,-2.12508 0.5319,-2.85506 2.7217,-2.78865 5.50768,0.0664 10.94849,0 16.38982,0 5.44132,0 10.88239,0.13307 16.32371,-0.0661 z m 37.43114,0.0376 c 3.90992,-0.009 7.79158,0.0286 11.6735,0.0286 h 15.92583 c 3.05245,0 4.24662,1.46074 3.05219,4.05068 -1.52623,3.25404 -3.71551,5.8445 -7.76333,5.8445 h -23.15906 c -3.38424,0 -5.37445,-2.32457 -6.76796,-4.91452 -1.59259,-2.85558 -0.0669,-4.98066 3.11829,-4.98066 1.31056,-0.0166 2.61723,-0.0254 3.92054,-0.0286 z m -127.809698,14.3726 c 5.839471,0.19923 11.6792,0.0661 17.51867,0.0661 2.587947,0 3.184648,0.53153 2.786502,3.58634 -0.729933,5.64476 -0.398663,11.42181 -0.19959,17.06656 0.132715,3.32044 -0.264395,6.7737 0.06739,9.96133 0.530861,5.44553 -0.465021,10.6926 -0.199591,16.07172 0.265431,5.04707 -2.58e-4,10.16082 0.06609,15.20789 0.06636,2.05867 -0.397887,2.92121 -2.720404,2.8548 -5.83947,-0.13281 -11.6792,-0.13281 -17.51867,0 -2.256159,0.0664 -2.786761,-0.72972 -2.720403,-2.8548 0.06636,-9.7621 0.06609,-19.65702 0.06609,-29.55194 0,-9.76211 0.06662,-19.52499 -0.06609,-29.3535 0,-2.2579 0.464762,-3.12095 2.919994,-3.05455 z m 147.977488,0 c 2.1898,-0.0664 3.05219,0.39871 3.05219,2.92225 -0.13271,19.65702 -0.0661,39.38071 -0.0661,59.03774 0,1.5274 0.26491,2.98736 -2.19032,2.92095 -6.90119,-0.0664 -13.86848,0 -21.30054,0 0.86265,-1.66022 0.66358,-2.92121 0.66358,-4.18298 v -53.99092 c 0,-6.64089 5.2e-4,-6.64089 6.50356,-6.64089 4.44596,0 8.89167,0.13308 13.33763,-0.0661 z m -83.29436,0.0636 c 0.24314,-0.0153 0.51271,-0.014 0.81132,0.003 5.70676,0.19923 11.41403,0.13282 17.12079,0 1.99073,-0.0664 2.91999,0.33205 2.91999,2.65636 -0.0664,19.85624 -0.0664,39.64583 0,59.50207 0,2.1915 -0.66435,2.79021 -2.7878,2.7238 -5.57404,-0.13281 -11.14756,-0.19922 -16.7216,0 -2.58795,0.0664 -3.45137,-0.53127 -3.45137,-3.32044 0.13271,-9.7621 0.0674,-19.52524 0.0674,-29.28734 0,-9.7621 0.0653,-19.52395 -0.0674,-29.28605 0,-1.97566 0.4067,-2.88386 2.10867,-2.991 z M 96.8024,415.6977 c 3.4506,-0.0664 4.97604,2.25816 6.17048,4.58247 1.45987,2.85558 0.0671,4.64862 -3.184387,4.64862 h -16.05932 c -5.30861,0 -10.683318,-0.13308 -15.991927,0.0661 -2.720663,0.13282 -2.919736,-1.19587 -2.654305,-3.18814 0.331788,-3.12122 3.450855,-5.97654 6.569663,-6.04295 8.36106,0 16.788736,0.13308 25.149796,-0.0661 z m 130.19313,0.0661 c 2.52159,0 4.31376,1.12921 5.83999,2.92225 1.32715,1.52741 1.85723,3.45326 1.19366,5.31271 -0.66358,1.85945 -2.65431,0.86358 -3.98146,0.92998 -4.91046,0.0664 -9.88625,0 -14.86307,0 -5.44133,0 -10.94978,-0.13307 -16.39111,0.0661 -2.6543,0.13281 -2.98583,-1.06203 -2.7204,-3.1207 0.33179,-3.12122 3.38449,-6.04424 6.56966,-6.04424 8.09563,0 16.2571,0.0667 24.35273,-0.0661 z m -89.64888,0.0662 h 24.68451 c 3.11881,0 6.30501,2.78969 6.70316,5.8445 0.26543,2.19149 -0.13298,3.45326 -2.92,3.32044 -5.37496,-0.19923 -10.68332,-0.0661 -15.99192,-0.0661 -5.44133,0 -10.88369,-0.19949 -16.32501,0.0661 -2.78702,0.13282 -3.18439,-1.19536 -2.8526,-3.32044 0.39814,-3.05481 3.58305,-5.8445 6.70186,-5.8445 z m -70.339079,13.61382 h 78.036299 86.79628 c 6.43669,0 9.15658,2.78917 9.15658,9.29724 0,7.5042 0.79655,6.70833 -6.70186,6.70833 -27.73749,0.0664 -55.54133,0.0661 -83.27881,0.0661 H 67.671147 c -0.663576,0 -1.261054,0.0664 -1.92463,0 -2.521589,-0.26563 -6.767701,0.46409 -7.165846,-1.46177 -0.729934,-3.51967 -1.658941,-7.63702 0.995364,-11.28951 1.924371,-2.65635 4.445443,-3.32044 7.431536,-3.32044 z"
		   id="path4584"
		   style="fill:#2a2a2a;fill-opacity:1;stroke-width:0.66383237" />
		<path
		   inkscape:connector-curvature="0"
		   d="m 149.95459,227.36243 c -15.85947,0.79691 -31.45377,3.91761 -46.38423,9.76159 -18.513776,7.30497 -35.435227,17.19989 -49.370327,31.5442 -10.484505,10.82465 -18.51274,23.57489 -24.816713,37.25512 -8.560133,18.59448 -14.001458,37.9869 -13.603312,58.50724 0.26543,15.20763 3.914322,29.88295 9.488361,44.09445 7.166623,18.39525 17.053908,35.2631 31.188082,49.14255 10.949007,10.75824 23.888742,18.86115 37.823842,25.30281 18.381057,8.50034 37.691127,13.87868 58.062917,13.48022 15.19589,-0.33204 29.86119,-3.91734 44.06172,-9.49569 18.38106,-7.23856 35.16953,-17.06707 49.10463,-31.21216 10.74994,-10.89105 18.84531,-23.84104 25.282,-37.7869 8.56013,-18.59448 14.00171,-37.98561 13.53721,-58.50595 -0.33179,-15.20763 -3.98172,-29.95065 -9.55576,-44.09574 -7.36569,-18.46166 -17.25272,-35.39644 -31.58596,-49.3423 -10.8163,-10.4926 -23.5567,-18.46192 -37.22637,-24.83717 -17.71748,-8.2347 -36.29787,-12.74973 -56.00609,-13.81227 z m -0.20736,27.77499 c 1.48475,0.0166 2.9949,0.51493 4.38841,1.51106 11.08172,8.03547 22.16345,16.07094 33.17881,24.23923 9.48914,7.03934 18.84505,14.21176 28.33418,21.18469 2.78702,2.19149 6.17126,3.65249 8.95828,6.97293 H 149.22492 74.174711 c 10.749934,-8.03547 21.234179,-16.00479 31.917759,-23.84104 13.07245,-9.62928 26.14516,-19.25805 39.41668,-28.68811 1.29397,-0.92972 2.75332,-1.39536 4.23808,-1.37876 z m -83.867221,58.44887 c 0.447914,0.008 0.895828,0.0415 1.327152,0.0415 H 230.513 c 2.12344,0 4.17975,0.1323 6.17048,0.79639 2.9861,0.92972 5.30861,4.24991 4.97682,7.03908 -0.33178,3.05481 -3.45007,5.84424 -6.76796,5.91065 -9.48914,0.0664 -19.04463,0 -28.53377,0 H 149.6889 65.548221 c -1.791656,0 -3.584347,-0.0669 -5.044214,-1.19588 -2.189802,-1.72663 -3.715768,-3.98376 -3.052192,-6.83934 0.862649,-3.65248 3.849518,-4.91425 7.101041,-5.64475 0.431325,-0.0996 0.879239,-0.11596 1.327153,-0.10766 z m 1.476198,18.07956 c 0.895828,0.0415 1.907264,0.32374 2.703555,0.29054 4.645034,-0.13282 9.357201,0 14.068592,0 5.441324,0 10.882131,0.0667 16.389816,-0.0661 2.1898,-0.0664 2.78676,0.66357 2.7204,2.78866 -0.13271,3.85171 -2.98532,6.97241 -7.165845,7.10523 -7.763841,0.13282 -15.461325,0.13307 -23.225166,-0.0661 -1.791656,-0.0664 -3.915617,-0.66357 -5.176412,-1.79252 -1.990729,-1.72663 -3.185166,-4.51658 -2.322517,-7.10652 0.331788,-0.99613 1.111749,-1.19458 2.007577,-1.15308 z m 98.590313,0.22439 c 2.65431,-0.13282 2.91948,1.12817 2.7204,3.18684 -0.39814,3.32045 -3.84874,6.70808 -7.29933,6.77449 -7.63113,0.13281 -15.19486,0.13281 -22.82599,0 -4.77775,-0.13282 -7.83123,-3.18841 -8.03031,-7.10653 -0.0663,-2.12508 0.5319,-2.85506 2.7217,-2.78865 5.50768,0.0664 10.94849,0 16.38982,0 5.44132,0 10.88239,0.13307 16.32371,-0.0661 z m 37.43114,0.0376 c 3.90992,-0.009 7.79158,0.0286 11.6735,0.0286 h 15.92583 c 3.05245,0 4.24662,1.46074 3.05219,4.05068 -1.52623,3.25404 -3.71551,5.8445 -7.76333,5.8445 h -23.15906 c -3.38424,0 -5.37445,-2.32457 -6.76796,-4.91452 -1.59259,-2.85558 -0.0669,-4.98066 3.11829,-4.98066 1.31056,-0.0166 2.61723,-0.0254 3.92054,-0.0286 z m -127.809698,14.3726 c 5.839471,0.19923 11.6792,0.0661 17.51867,0.0661 2.587947,0 3.184648,0.53153 2.786502,3.58634 -0.729933,5.64476 -0.398663,11.42181 -0.19959,17.06656 0.132715,3.32044 -0.264395,6.7737 0.06739,9.96133 0.530861,5.44553 -0.465021,10.6926 -0.199591,16.07172 0.265431,5.04707 -2.58e-4,10.16082 0.06609,15.20789 0.06636,2.05867 -0.397887,2.92121 -2.720404,2.8548 -5.83947,-0.13281 -11.6792,-0.13281 -17.51867,0 -2.256159,0.0664 -2.786761,-0.72972 -2.720403,-2.8548 0.06636,-9.7621 0.06609,-19.65702 0.06609,-29.55194 0,-9.76211 0.06662,-19.52499 -0.06609,-29.3535 0,-2.2579 0.464762,-3.12095 2.919994,-3.05455 z m 147.977488,0 c 2.1898,-0.0664 3.05219,0.39871 3.05219,2.92225 -0.13271,19.65702 -0.0661,39.38071 -0.0661,59.03774 0,1.5274 0.26491,2.98736 -2.19032,2.92095 -6.90119,-0.0664 -13.86848,0 -21.30054,0 0.86265,-1.66022 0.66358,-2.92121 0.66358,-4.18298 v -53.99092 c 0,-6.64089 5.2e-4,-6.64089 6.50356,-6.64089 4.44596,0 8.89167,0.13308 13.33763,-0.0661 z m -83.29436,0.0636 c 0.24314,-0.0153 0.51271,-0.014 0.81132,0.003 5.70676,0.19923 11.41403,0.13282 17.12079,0 1.99073,-0.0664 2.91999,0.33205 2.91999,2.65636 -0.0664,19.85624 -0.0664,39.64583 0,59.50207 0,2.1915 -0.66435,2.79021 -2.7878,2.7238 -5.57404,-0.13281 -11.14756,-0.19922 -16.7216,0 -2.58795,0.0664 -3.45137,-0.53127 -3.45137,-3.32044 0.13271,-9.7621 0.0674,-19.52524 0.0674,-29.28734 0,-9.7621 0.0653,-19.52395 -0.0674,-29.28605 0,-1.97566 0.4067,-2.88386 2.10867,-2.991 z M 96.8024,415.6977 c 3.4506,-0.0664 4.97604,2.25816 6.17048,4.58247 1.45987,2.85558 0.0671,4.64862 -3.184387,4.64862 h -16.05932 c -5.30861,0 -10.683318,-0.13308 -15.991927,0.0661 -2.720663,0.13282 -2.919736,-1.19587 -2.654305,-3.18814 0.331788,-3.12122 3.450855,-5.97654 6.569663,-6.04295 8.36106,0 16.788736,0.13308 25.149796,-0.0661 z m 130.19313,0.0661 c 2.52159,0 4.31376,1.12921 5.83999,2.92225 1.32715,1.52741 1.85723,3.45326 1.19366,5.31271 -0.66358,1.85945 -2.65431,0.86358 -3.98146,0.92998 -4.91046,0.0664 -9.88625,0 -14.86307,0 -5.44133,0 -10.94978,-0.13307 -16.39111,0.0661 -2.6543,0.13281 -2.98583,-1.06203 -2.7204,-3.1207 0.33179,-3.12122 3.38449,-6.04424 6.56966,-6.04424 8.09563,0 16.2571,0.0667 24.35273,-0.0661 z m -89.64888,0.0662 h 24.68451 c 3.11881,0 6.30501,2.78969 6.70316,5.8445 0.26543,2.19149 -0.13298,3.45326 -2.92,3.32044 -5.37496,-0.19923 -10.68332,-0.0661 -15.99192,-0.0661 -5.44133,0 -10.88369,-0.19949 -16.32501,0.0661 -2.78702,0.13282 -3.18439,-1.19536 -2.8526,-3.32044 0.39814,-3.05481 3.58305,-5.8445 6.70186,-5.8445 z m -70.339079,13.61382 h 78.036299 86.79628 c 6.43669,0 9.15658,2.78917 9.15658,9.29724 0,7.5042 0.79655,6.70833 -6.70186,6.70833 -27.73749,0.0664 -55.54133,0.0661 -83.27881,0.0661 H 67.671147 c -0.663576,0 -1.261054,0.0664 -1.92463,0 -2.521589,-0.26563 -6.767701,0.46409 -7.165846,-1.46177 -0.729934,-3.51967 -1.658941,-7.63702 0.995364,-11.28951 1.924371,-2.65635 4.445443,-3.32044 7.431536,-3.32044 z"
		   id="path4586"
		   style="stroke-width:0.66383237" />
	</g>
</svg>


<svg width="300" viewBox="0 0 300 300">
  <defs>
    <linearGradient id="grad2" x1="25%" y1="25%" x2="75%" y2="125%">
      <stop offset="0%" stop-color="#005d33"/>
      <stop offset="5%" stop-color="#005d33"/>
      <stop offset="5%" stop-color="#007c44"/>
      <stop offset="10%" stop-color="#007c44"/>
      <stop offset="10%" stop-color="#005d33"/>
      <stop offset="15%" stop-color="#005d33"/>
      <stop offset="15%" stop-color="#007c44"/>
      <stop offset="20%" stop-color="#007c44"/>
      <stop offset="20%" stop-color="#005d33"/>
      <stop offset="25%" stop-color="#005d33"/>
      <stop offset="25%" stop-color="#007c44"/>
      <stop offset="30%" stop-color="#007c44"/>
      <stop offset="30%" stop-color="#005d33"/>
      <stop offset="35%" stop-color="#005d33"/>
      <stop offset="35%" stop-color="#007c44"/>
      <stop offset="40%" stop-color="#007c44"/>
      <stop offset="40%" stop-color="#005d33"/>
      <stop offset="45%" stop-color="#005d33"/>
      <stop offset="45%" stop-color="#007c44"/>
      <stop offset="50%" stop-color="#007c44"/>
      <stop offset="50%" stop-color="#005d33"/>
      <stop offset="55%" stop-color="#005d33"/>
      <stop offset="55%" stop-color="#007c44"/>
      <stop offset="60%" stop-color="#007c44"/>
      <stop offset="60%" stop-color="#005d33"/>
      <stop offset="65%" stop-color="#005d33"/>
      <stop offset="65%" stop-color="#007c44"/>
      <stop offset="70%" stop-color="#007c44"/>
      <stop offset="70%" stop-color="#005d33"/>
      <stop offset="75%" stop-color="#005d33"/>
      <stop offset="75%" stop-color="#007c44"/>
      <stop offset="80%" stop-color="#007c44"/>
      <stop offset="80%" stop-color="#005d33"/>
      <stop offset="85%" stop-color="#005d33"/>
      <stop offset="85%" stop-color="#007c44"/>
      <stop offset="90%" stop-color="#007c44"/>
      <stop offset="90%" stop-color="#005d33"/>
      <stop offset="95%" stop-color="#005d33"/>
      <stop offset="95%" stop-color="#007c44"/>
      <stop offset="100%" stop-color="#007c44"/>
      
      <animate attributeName="x1" dur="5s" values="25%; 0%" repeatCount="indefinite" />
      <animate attributeName="y1" dur="5s" values="25%; 0%" repeatCount="indefinite" />
      <animate attributeName="x2" dur="5s" values="75%; 50%" repeatCount="indefinite" />
      <animate attributeName="y2" dur="5s" values="125%; 100%" repeatCount="indefinite" />
      
    </linearGradient>
  </defs>
  <style
     type="text/css"
     id="style4582">
	.st0{fill:#141414;}
	.st1{fill:#080808;}
	.st2{fill:#FFFFFF;}
	</style>
  <circle cx="150" cy="150" r="150" fill="url(#grad2)" />
  <rect x="50" y="40" width="100" height="200" fill="#fff"/>
  <rect id="rect1" x="150" y="40" width="100px" height="200" fill="#fff"/>
	<g
     id="g4612"
     transform="translate(0,-212)">
		<path
		   inkscape:connector-curvature="0"
		   d="M 149.44006,212.0002 C 112.04244,211.94313 78.511805,224.44174 49.886788,250.13989 19.893144,277.03548 3.1049251,310.97093 0.38426274,351.28111 -2.4027572,393.51714 9.9402786,431.10456 38.407697,462.51595 c 29.728212,32.73956 67.087813,49.27537 111.414703,49.4746 83.87602,0.92972 145.52148,-66.87398 149.83472,-138.72837 2.58795,-42.23604 -9.42304,-79.75652 -37.75774,-111.36714 -26.80848,-29.88399 -60.65009,-46.68543 -100.73009,-49.4746 -3.95035,-0.27394 -7.86051,-0.41434 -11.72923,-0.42024 z m 0.30717,43.13722 c 1.48475,0.0166 2.9949,0.51493 4.38841,1.51106 11.08172,8.03547 22.16345,16.07094 33.17881,24.23923 9.48914,7.03934 18.84505,14.21176 28.33418,21.18469 2.78702,2.19149 6.17126,3.65249 8.95828,6.97293 H 149.22492 74.174711 c 10.749934,-8.03547 21.234179,-16.00479 31.917759,-23.84104 13.07245,-9.62928 26.14516,-19.25805 39.41668,-28.68811 1.29397,-0.92972 2.75332,-1.39536 4.23808,-1.37876 z m -83.867221,58.44887 c 0.447914,0.008 0.895828,0.0415 1.327152,0.0415 H 230.513 c 2.12344,0 4.17975,0.1323 6.17048,0.79639 2.9861,0.92972 5.30861,4.24991 4.97682,7.03908 -0.33178,3.05481 -3.45007,5.84424 -6.76796,5.91065 -9.48914,0.0664 -19.04463,0 -28.53377,0 H 149.6889 65.548221 c -1.791656,0 -3.584347,-0.0669 -5.044214,-1.19588 -2.189802,-1.72663 -3.715768,-3.98376 -3.052192,-6.83934 0.862649,-3.65248 3.849518,-4.91425 7.101041,-5.64475 0.431325,-0.0996 0.879239,-0.11596 1.327153,-0.10766 z m 1.476198,18.07956 c 0.895828,0.0415 1.907264,0.32374 2.703555,0.29054 4.645034,-0.13282 9.357201,0 14.068592,0 5.441324,0 10.882131,0.0667 16.389816,-0.0661 2.1898,-0.0664 2.78676,0.66357 2.7204,2.78866 -0.13271,3.85171 -2.98532,6.97241 -7.165845,7.10523 -7.763841,0.13282 -15.461325,0.13307 -23.225166,-0.0661 -1.791656,-0.0664 -3.915617,-0.66357 -5.176412,-1.79252 -1.990729,-1.72663 -3.185166,-4.51658 -2.322517,-7.10652 0.331788,-0.99613 1.111749,-1.19458 2.007577,-1.15308 z m 98.590313,0.22439 c 2.65431,-0.13282 2.91948,1.12817 2.7204,3.18684 -0.39814,3.32045 -3.84874,6.70808 -7.29933,6.77449 -7.63113,0.13281 -15.19486,0.13281 -22.82599,0 -4.77775,-0.13282 -7.83123,-3.18841 -8.03031,-7.10653 -0.0663,-2.12508 0.5319,-2.85506 2.7217,-2.78865 5.50768,0.0664 10.94849,0 16.38982,0 5.44132,0 10.88239,0.13307 16.32371,-0.0661 z m 37.43114,0.0376 c 3.90992,-0.009 7.79158,0.0286 11.6735,0.0286 h 15.92583 c 3.05245,0 4.24662,1.46074 3.05219,4.05068 -1.52623,3.25404 -3.71551,5.8445 -7.76333,5.8445 h -23.15906 c -3.38424,0 -5.37445,-2.32457 -6.76796,-4.91452 -1.59259,-2.85558 -0.0669,-4.98066 3.11829,-4.98066 1.31056,-0.0166 2.61723,-0.0254 3.92054,-0.0286 z m -127.809698,14.3726 c 5.839471,0.19923 11.6792,0.0661 17.51867,0.0661 2.587947,0 3.184648,0.53153 2.786502,3.58634 -0.729933,5.64476 -0.398663,11.42181 -0.19959,17.06656 0.132715,3.32044 -0.264395,6.7737 0.06739,9.96133 0.530861,5.44553 -0.465021,10.6926 -0.199591,16.07172 0.265431,5.04707 -2.58e-4,10.16082 0.06609,15.20789 0.06636,2.05867 -0.397887,2.92121 -2.720404,2.8548 -5.83947,-0.13281 -11.6792,-0.13281 -17.51867,0 -2.256159,0.0664 -2.786761,-0.72972 -2.720403,-2.8548 0.06636,-9.7621 0.06609,-19.65702 0.06609,-29.55194 0,-9.76211 0.06662,-19.52499 -0.06609,-29.3535 0,-2.2579 0.464762,-3.12095 2.919994,-3.05455 z m 147.977488,0 c 2.1898,-0.0664 3.05219,0.39871 3.05219,2.92225 -0.13271,19.65702 -0.0661,39.38071 -0.0661,59.03774 0,1.5274 0.26491,2.98736 -2.19032,2.92095 -6.90119,-0.0664 -13.86848,0 -21.30054,0 0.86265,-1.66022 0.66358,-2.92121 0.66358,-4.18298 v -53.99092 c 0,-6.64089 5.2e-4,-6.64089 6.50356,-6.64089 4.44596,0 8.89167,0.13308 13.33763,-0.0661 z m -83.29436,0.0636 c 0.24314,-0.0153 0.51271,-0.014 0.81132,0.003 5.70676,0.19923 11.41403,0.13282 17.12079,0 1.99073,-0.0664 2.91999,0.33205 2.91999,2.65636 -0.0664,19.85624 -0.0664,39.64583 0,59.50207 0,2.1915 -0.66435,2.79021 -2.7878,2.7238 -5.57404,-0.13281 -11.14756,-0.19922 -16.7216,0 -2.58795,0.0664 -3.45137,-0.53127 -3.45137,-3.32044 0.13271,-9.7621 0.0674,-19.52524 0.0674,-29.28734 0,-9.7621 0.0653,-19.52395 -0.0674,-29.28605 0,-1.97566 0.4067,-2.88386 2.10867,-2.991 z M 96.8024,415.6977 c 3.4506,-0.0664 4.97604,2.25816 6.17048,4.58247 1.45987,2.85558 0.0671,4.64862 -3.184387,4.64862 h -16.05932 c -5.30861,0 -10.683318,-0.13308 -15.991927,0.0661 -2.720663,0.13282 -2.919736,-1.19587 -2.654305,-3.18814 0.331788,-3.12122 3.450855,-5.97654 6.569663,-6.04295 8.36106,0 16.788736,0.13308 25.149796,-0.0661 z m 130.19313,0.0661 c 2.52159,0 4.31376,1.12921 5.83999,2.92225 1.32715,1.52741 1.85723,3.45326 1.19366,5.31271 -0.66358,1.85945 -2.65431,0.86358 -3.98146,0.92998 -4.91046,0.0664 -9.88625,0 -14.86307,0 -5.44133,0 -10.94978,-0.13307 -16.39111,0.0661 -2.6543,0.13281 -2.98583,-1.06203 -2.7204,-3.1207 0.33179,-3.12122 3.38449,-6.04424 6.56966,-6.04424 8.09563,0 16.2571,0.0667 24.35273,-0.0661 z m -89.64888,0.0662 h 24.68451 c 3.11881,0 6.30501,2.78969 6.70316,5.8445 0.26543,2.19149 -0.13298,3.45326 -2.92,3.32044 -5.37496,-0.19923 -10.68332,-0.0661 -15.99192,-0.0661 -5.44133,0 -10.88369,-0.19949 -16.32501,0.0661 -2.78702,0.13282 -3.18439,-1.19536 -2.8526,-3.32044 0.39814,-3.05481 3.58305,-5.8445 6.70186,-5.8445 z m -70.339079,13.61382 h 78.036299 86.79628 c 6.43669,0 9.15658,2.78917 9.15658,9.29724 0,7.5042 0.79655,6.70833 -6.70186,6.70833 -27.73749,0.0664 -55.54133,0.0661 -83.27881,0.0661 H 67.671147 c -0.663576,0 -1.261054,0.0664 -1.92463,0 -2.521589,-0.26563 -6.767701,0.46409 -7.165846,-1.46177 -0.729934,-3.51967 -1.658941,-7.63702 0.995364,-11.28951 1.924371,-2.65635 4.445443,-3.32044 7.431536,-3.32044 z"
		   id="path4584"
		   style="fill:#2a2a2a;fill-opacity:1;stroke-width:0.66383237" />
		<path
		   inkscape:connector-curvature="0"
		   d="m 149.95459,227.36243 c -15.85947,0.79691 -31.45377,3.91761 -46.38423,9.76159 -18.513776,7.30497 -35.435227,17.19989 -49.370327,31.5442 -10.484505,10.82465 -18.51274,23.57489 -24.816713,37.25512 -8.560133,18.59448 -14.001458,37.9869 -13.603312,58.50724 0.26543,15.20763 3.914322,29.88295 9.488361,44.09445 7.166623,18.39525 17.053908,35.2631 31.188082,49.14255 10.949007,10.75824 23.888742,18.86115 37.823842,25.30281 18.381057,8.50034 37.691127,13.87868 58.062917,13.48022 15.19589,-0.33204 29.86119,-3.91734 44.06172,-9.49569 18.38106,-7.23856 35.16953,-17.06707 49.10463,-31.21216 10.74994,-10.89105 18.84531,-23.84104 25.282,-37.7869 8.56013,-18.59448 14.00171,-37.98561 13.53721,-58.50595 -0.33179,-15.20763 -3.98172,-29.95065 -9.55576,-44.09574 -7.36569,-18.46166 -17.25272,-35.39644 -31.58596,-49.3423 -10.8163,-10.4926 -23.5567,-18.46192 -37.22637,-24.83717 -17.71748,-8.2347 -36.29787,-12.74973 -56.00609,-13.81227 z m -0.20736,27.77499 c 1.48475,0.0166 2.9949,0.51493 4.38841,1.51106 11.08172,8.03547 22.16345,16.07094 33.17881,24.23923 9.48914,7.03934 18.84505,14.21176 28.33418,21.18469 2.78702,2.19149 6.17126,3.65249 8.95828,6.97293 H 149.22492 74.174711 c 10.749934,-8.03547 21.234179,-16.00479 31.917759,-23.84104 13.07245,-9.62928 26.14516,-19.25805 39.41668,-28.68811 1.29397,-0.92972 2.75332,-1.39536 4.23808,-1.37876 z m -83.867221,58.44887 c 0.447914,0.008 0.895828,0.0415 1.327152,0.0415 H 230.513 c 2.12344,0 4.17975,0.1323 6.17048,0.79639 2.9861,0.92972 5.30861,4.24991 4.97682,7.03908 -0.33178,3.05481 -3.45007,5.84424 -6.76796,5.91065 -9.48914,0.0664 -19.04463,0 -28.53377,0 H 149.6889 65.548221 c -1.791656,0 -3.584347,-0.0669 -5.044214,-1.19588 -2.189802,-1.72663 -3.715768,-3.98376 -3.052192,-6.83934 0.862649,-3.65248 3.849518,-4.91425 7.101041,-5.64475 0.431325,-0.0996 0.879239,-0.11596 1.327153,-0.10766 z m 1.476198,18.07956 c 0.895828,0.0415 1.907264,0.32374 2.703555,0.29054 4.645034,-0.13282 9.357201,0 14.068592,0 5.441324,0 10.882131,0.0667 16.389816,-0.0661 2.1898,-0.0664 2.78676,0.66357 2.7204,2.78866 -0.13271,3.85171 -2.98532,6.97241 -7.165845,7.10523 -7.763841,0.13282 -15.461325,0.13307 -23.225166,-0.0661 -1.791656,-0.0664 -3.915617,-0.66357 -5.176412,-1.79252 -1.990729,-1.72663 -3.185166,-4.51658 -2.322517,-7.10652 0.331788,-0.99613 1.111749,-1.19458 2.007577,-1.15308 z m 98.590313,0.22439 c 2.65431,-0.13282 2.91948,1.12817 2.7204,3.18684 -0.39814,3.32045 -3.84874,6.70808 -7.29933,6.77449 -7.63113,0.13281 -15.19486,0.13281 -22.82599,0 -4.77775,-0.13282 -7.83123,-3.18841 -8.03031,-7.10653 -0.0663,-2.12508 0.5319,-2.85506 2.7217,-2.78865 5.50768,0.0664 10.94849,0 16.38982,0 5.44132,0 10.88239,0.13307 16.32371,-0.0661 z m 37.43114,0.0376 c 3.90992,-0.009 7.79158,0.0286 11.6735,0.0286 h 15.92583 c 3.05245,0 4.24662,1.46074 3.05219,4.05068 -1.52623,3.25404 -3.71551,5.8445 -7.76333,5.8445 h -23.15906 c -3.38424,0 -5.37445,-2.32457 -6.76796,-4.91452 -1.59259,-2.85558 -0.0669,-4.98066 3.11829,-4.98066 1.31056,-0.0166 2.61723,-0.0254 3.92054,-0.0286 z m -127.809698,14.3726 c 5.839471,0.19923 11.6792,0.0661 17.51867,0.0661 2.587947,0 3.184648,0.53153 2.786502,3.58634 -0.729933,5.64476 -0.398663,11.42181 -0.19959,17.06656 0.132715,3.32044 -0.264395,6.7737 0.06739,9.96133 0.530861,5.44553 -0.465021,10.6926 -0.199591,16.07172 0.265431,5.04707 -2.58e-4,10.16082 0.06609,15.20789 0.06636,2.05867 -0.397887,2.92121 -2.720404,2.8548 -5.83947,-0.13281 -11.6792,-0.13281 -17.51867,0 -2.256159,0.0664 -2.786761,-0.72972 -2.720403,-2.8548 0.06636,-9.7621 0.06609,-19.65702 0.06609,-29.55194 0,-9.76211 0.06662,-19.52499 -0.06609,-29.3535 0,-2.2579 0.464762,-3.12095 2.919994,-3.05455 z m 147.977488,0 c 2.1898,-0.0664 3.05219,0.39871 3.05219,2.92225 -0.13271,19.65702 -0.0661,39.38071 -0.0661,59.03774 0,1.5274 0.26491,2.98736 -2.19032,2.92095 -6.90119,-0.0664 -13.86848,0 -21.30054,0 0.86265,-1.66022 0.66358,-2.92121 0.66358,-4.18298 v -53.99092 c 0,-6.64089 5.2e-4,-6.64089 6.50356,-6.64089 4.44596,0 8.89167,0.13308 13.33763,-0.0661 z m -83.29436,0.0636 c 0.24314,-0.0153 0.51271,-0.014 0.81132,0.003 5.70676,0.19923 11.41403,0.13282 17.12079,0 1.99073,-0.0664 2.91999,0.33205 2.91999,2.65636 -0.0664,19.85624 -0.0664,39.64583 0,59.50207 0,2.1915 -0.66435,2.79021 -2.7878,2.7238 -5.57404,-0.13281 -11.14756,-0.19922 -16.7216,0 -2.58795,0.0664 -3.45137,-0.53127 -3.45137,-3.32044 0.13271,-9.7621 0.0674,-19.52524 0.0674,-29.28734 0,-9.7621 0.0653,-19.52395 -0.0674,-29.28605 0,-1.97566 0.4067,-2.88386 2.10867,-2.991 z M 96.8024,415.6977 c 3.4506,-0.0664 4.97604,2.25816 6.17048,4.58247 1.45987,2.85558 0.0671,4.64862 -3.184387,4.64862 h -16.05932 c -5.30861,0 -10.683318,-0.13308 -15.991927,0.0661 -2.720663,0.13282 -2.919736,-1.19587 -2.654305,-3.18814 0.331788,-3.12122 3.450855,-5.97654 6.569663,-6.04295 8.36106,0 16.788736,0.13308 25.149796,-0.0661 z m 130.19313,0.0661 c 2.52159,0 4.31376,1.12921 5.83999,2.92225 1.32715,1.52741 1.85723,3.45326 1.19366,5.31271 -0.66358,1.85945 -2.65431,0.86358 -3.98146,0.92998 -4.91046,0.0664 -9.88625,0 -14.86307,0 -5.44133,0 -10.94978,-0.13307 -16.39111,0.0661 -2.6543,0.13281 -2.98583,-1.06203 -2.7204,-3.1207 0.33179,-3.12122 3.38449,-6.04424 6.56966,-6.04424 8.09563,0 16.2571,0.0667 24.35273,-0.0661 z m -89.64888,0.0662 h 24.68451 c 3.11881,0 6.30501,2.78969 6.70316,5.8445 0.26543,2.19149 -0.13298,3.45326 -2.92,3.32044 -5.37496,-0.19923 -10.68332,-0.0661 -15.99192,-0.0661 -5.44133,0 -10.88369,-0.19949 -16.32501,0.0661 -2.78702,0.13282 -3.18439,-1.19536 -2.8526,-3.32044 0.39814,-3.05481 3.58305,-5.8445 6.70186,-5.8445 z m -70.339079,13.61382 h 78.036299 86.79628 c 6.43669,0 9.15658,2.78917 9.15658,9.29724 0,7.5042 0.79655,6.70833 -6.70186,6.70833 -27.73749,0.0664 -55.54133,0.0661 -83.27881,0.0661 H 67.671147 c -0.663576,0 -1.261054,0.0664 -1.92463,0 -2.521589,-0.26563 -6.767701,0.46409 -7.165846,-1.46177 -0.729934,-3.51967 -1.658941,-7.63702 0.995364,-11.28951 1.924371,-2.65635 4.445443,-3.32044 7.431536,-3.32044 z"
		   id="path4586"
		   style="stroke-width:0.66383237" />
	</g>
</svg>
-->





























<svg width="700" viewBox="0 0 1100 300" xmlns="http://www.w3.org/2000/svg" xmlns:xlink="http://www.w3.org/1999/xlink">
  <defs>
    <linearGradient id="grad2" x1="25%" y1="25%" x2="75%" y2="125%">
      <stop offset="0%" stop-color="#005d33"/>
      <stop offset="5%" stop-color="#005d33"/>
      <stop offset="5%" stop-color="#007c44"/>
      <stop offset="10%" stop-color="#007c44"/>
      <stop offset="10%" stop-color="#005d33"/>
      <stop offset="15%" stop-color="#005d33"/>
      <stop offset="15%" stop-color="#007c44"/>
      <stop offset="20%" stop-color="#007c44"/>
      <stop offset="20%" stop-color="#005d33"/>
      <stop offset="25%" stop-color="#005d33"/>
      <stop offset="25%" stop-color="#007c44"/>
      <stop offset="30%" stop-color="#007c44"/>
      <stop offset="30%" stop-color="#005d33"/>
      <stop offset="35%" stop-color="#005d33"/>
      <stop offset="35%" stop-color="#007c44"/>
      <stop offset="40%" stop-color="#007c44"/>
      <stop offset="40%" stop-color="#005d33"/>
      <stop offset="45%" stop-color="#005d33"/>
      <stop offset="45%" stop-color="#007c44"/>
      <stop offset="50%" stop-color="#007c44"/>
      <stop offset="50%" stop-color="#005d33"/>
      <stop offset="55%" stop-color="#005d33"/>
      <stop offset="55%" stop-color="#007c44"/>
      <stop offset="60%" stop-color="#007c44"/>
      <stop offset="60%" stop-color="#005d33"/>
      <stop offset="65%" stop-color="#005d33"/>
      <stop offset="65%" stop-color="#007c44"/>
      <stop offset="70%" stop-color="#007c44"/>
      <stop offset="70%" stop-color="#005d33"/>
      <stop offset="75%" stop-color="#005d33"/>
      <stop offset="75%" stop-color="#007c44"/>
      <stop offset="80%" stop-color="#007c44"/>
      <stop offset="80%" stop-color="#005d33"/>
      <stop offset="85%" stop-color="#005d33"/>
      <stop offset="85%" stop-color="#007c44"/>
      <stop offset="90%" stop-color="#007c44"/>
      <stop offset="90%" stop-color="#005d33"/>
      <stop offset="95%" stop-color="#005d33"/>
      <stop offset="95%" stop-color="#007c44"/>
      <stop offset="100%" stop-color="#007c44"/>
      
      <animate attributeName="x1" dur="5s" values="25%; 0%" repeatCount="indefinite" />
      <animate attributeName="y1" dur="5s" values="25%; 0%" repeatCount="indefinite" />
      <animate attributeName="x2" dur="5s" values="75%; 50%" repeatCount="indefinite" />
      <animate attributeName="y2" dur="5s" values="125%; 100%" repeatCount="indefinite" />
      
    </linearGradient>
	  <!--
	  <style type="text/css">
            @font-face {
                font-family: 'Segoe UI Light-my';
                src: url('segoeuil.ttf');
                src: url('segoeuil.ttf?#iefix') format('embedded-opentype'), url('segoeuil.ttf') format('woff'), url('segoeuil.ttf') format('truetype'), url('segoeuil.ttf') format('svg');
                font-weight: normal;
                font-style: normal; }
        </style>
-->
  </defs>
  <style
     type="text/css"
     id="style4582">
	.st0{fill:#141414;}
	.st1{fill:#080808;}
	.st2{fill:#FFFFFF;}
	</style>
  <circle cx="150" cy="150" r="150" fill="url(#grad2)" />
  <rect x="50" y="40" width="100" height="200" fill="#fff"/>
  <rect id="rect1" x="149" y="40" width="100px" height="200" fill="#fff"/>
	<g
     id="g4612"
     transform="translate(0,-212)">
		<path
		   d="M 149.44006,212.0002 C 112.04244,211.94313 78.511805,224.44174 49.886788,250.13989 19.893144,277.03548 3.1049251,310.97093 0.38426274,351.28111 -2.4027572,393.51714 9.9402786,431.10456 38.407697,462.51595 c 29.728212,32.73956 67.087813,49.27537 111.414703,49.4746 83.87602,0.92972 145.52148,-66.87398 149.83472,-138.72837 2.58795,-42.23604 -9.42304,-79.75652 -37.75774,-111.36714 -26.80848,-29.88399 -60.65009,-46.68543 -100.73009,-49.4746 -3.95035,-0.27394 -7.86051,-0.41434 -11.72923,-0.42024 z m 0.30717,43.13722 c 1.48475,0.0166 2.9949,0.51493 4.38841,1.51106 11.08172,8.03547 22.16345,16.07094 33.17881,24.23923 9.48914,7.03934 18.84505,14.21176 28.33418,21.18469 2.78702,2.19149 6.17126,3.65249 8.95828,6.97293 H 149.22492 74.174711 c 10.749934,-8.03547 21.234179,-16.00479 31.917759,-23.84104 13.07245,-9.62928 26.14516,-19.25805 39.41668,-28.68811 1.29397,-0.92972 2.75332,-1.39536 4.23808,-1.37876 z m -83.867221,58.44887 c 0.447914,0.008 0.895828,0.0415 1.327152,0.0415 H 230.513 c 2.12344,0 4.17975,0.1323 6.17048,0.79639 2.9861,0.92972 5.30861,4.24991 4.97682,7.03908 -0.33178,3.05481 -3.45007,5.84424 -6.76796,5.91065 -9.48914,0.0664 -19.04463,0 -28.53377,0 H 149.6889 65.548221 c -1.791656,0 -3.584347,-0.0669 -5.044214,-1.19588 -2.189802,-1.72663 -3.715768,-3.98376 -3.052192,-6.83934 0.862649,-3.65248 3.849518,-4.91425 7.101041,-5.64475 0.431325,-0.0996 0.879239,-0.11596 1.327153,-0.10766 z m 1.476198,18.07956 c 0.895828,0.0415 1.907264,0.32374 2.703555,0.29054 4.645034,-0.13282 9.357201,0 14.068592,0 5.441324,0 10.882131,0.0667 16.389816,-0.0661 2.1898,-0.0664 2.78676,0.66357 2.7204,2.78866 -0.13271,3.85171 -2.98532,6.97241 -7.165845,7.10523 -7.763841,0.13282 -15.461325,0.13307 -23.225166,-0.0661 -1.791656,-0.0664 -3.915617,-0.66357 -5.176412,-1.79252 -1.990729,-1.72663 -3.185166,-4.51658 -2.322517,-7.10652 0.331788,-0.99613 1.111749,-1.19458 2.007577,-1.15308 z m 98.590313,0.22439 c 2.65431,-0.13282 2.91948,1.12817 2.7204,3.18684 -0.39814,3.32045 -3.84874,6.70808 -7.29933,6.77449 -7.63113,0.13281 -15.19486,0.13281 -22.82599,0 -4.77775,-0.13282 -7.83123,-3.18841 -8.03031,-7.10653 -0.0663,-2.12508 0.5319,-2.85506 2.7217,-2.78865 5.50768,0.0664 10.94849,0 16.38982,0 5.44132,0 10.88239,0.13307 16.32371,-0.0661 z m 37.43114,0.0376 c 3.90992,-0.009 7.79158,0.0286 11.6735,0.0286 h 15.92583 c 3.05245,0 4.24662,1.46074 3.05219,4.05068 -1.52623,3.25404 -3.71551,5.8445 -7.76333,5.8445 h -23.15906 c -3.38424,0 -5.37445,-2.32457 -6.76796,-4.91452 -1.59259,-2.85558 -0.0669,-4.98066 3.11829,-4.98066 1.31056,-0.0166 2.61723,-0.0254 3.92054,-0.0286 z m -127.809698,14.3726 c 5.839471,0.19923 11.6792,0.0661 17.51867,0.0661 2.587947,0 3.184648,0.53153 2.786502,3.58634 -0.729933,5.64476 -0.398663,11.42181 -0.19959,17.06656 0.132715,3.32044 -0.264395,6.7737 0.06739,9.96133 0.530861,5.44553 -0.465021,10.6926 -0.199591,16.07172 0.265431,5.04707 -2.58e-4,10.16082 0.06609,15.20789 0.06636,2.05867 -0.397887,2.92121 -2.720404,2.8548 -5.83947,-0.13281 -11.6792,-0.13281 -17.51867,0 -2.256159,0.0664 -2.786761,-0.72972 -2.720403,-2.8548 0.06636,-9.7621 0.06609,-19.65702 0.06609,-29.55194 0,-9.76211 0.06662,-19.52499 -0.06609,-29.3535 0,-2.2579 0.464762,-3.12095 2.919994,-3.05455 z m 147.977488,0 c 2.1898,-0.0664 3.05219,0.39871 3.05219,2.92225 -0.13271,19.65702 -0.0661,39.38071 -0.0661,59.03774 0,1.5274 0.26491,2.98736 -2.19032,2.92095 -6.90119,-0.0664 -13.86848,0 -21.30054,0 0.86265,-1.66022 0.66358,-2.92121 0.66358,-4.18298 v -53.99092 c 0,-6.64089 5.2e-4,-6.64089 6.50356,-6.64089 4.44596,0 8.89167,0.13308 13.33763,-0.0661 z m -83.29436,0.0636 c 0.24314,-0.0153 0.51271,-0.014 0.81132,0.003 5.70676,0.19923 11.41403,0.13282 17.12079,0 1.99073,-0.0664 2.91999,0.33205 2.91999,2.65636 -0.0664,19.85624 -0.0664,39.64583 0,59.50207 0,2.1915 -0.66435,2.79021 -2.7878,2.7238 -5.57404,-0.13281 -11.14756,-0.19922 -16.7216,0 -2.58795,0.0664 -3.45137,-0.53127 -3.45137,-3.32044 0.13271,-9.7621 0.0674,-19.52524 0.0674,-29.28734 0,-9.7621 0.0653,-19.52395 -0.0674,-29.28605 0,-1.97566 0.4067,-2.88386 2.10867,-2.991 z M 96.8024,415.6977 c 3.4506,-0.0664 4.97604,2.25816 6.17048,4.58247 1.45987,2.85558 0.0671,4.64862 -3.184387,4.64862 h -16.05932 c -5.30861,0 -10.683318,-0.13308 -15.991927,0.0661 -2.720663,0.13282 -2.919736,-1.19587 -2.654305,-3.18814 0.331788,-3.12122 3.450855,-5.97654 6.569663,-6.04295 8.36106,0 16.788736,0.13308 25.149796,-0.0661 z m 130.19313,0.0661 c 2.52159,0 4.31376,1.12921 5.83999,2.92225 1.32715,1.52741 1.85723,3.45326 1.19366,5.31271 -0.66358,1.85945 -2.65431,0.86358 -3.98146,0.92998 -4.91046,0.0664 -9.88625,0 -14.86307,0 -5.44133,0 -10.94978,-0.13307 -16.39111,0.0661 -2.6543,0.13281 -2.98583,-1.06203 -2.7204,-3.1207 0.33179,-3.12122 3.38449,-6.04424 6.56966,-6.04424 8.09563,0 16.2571,0.0667 24.35273,-0.0661 z m -89.64888,0.0662 h 24.68451 c 3.11881,0 6.30501,2.78969 6.70316,5.8445 0.26543,2.19149 -0.13298,3.45326 -2.92,3.32044 -5.37496,-0.19923 -10.68332,-0.0661 -15.99192,-0.0661 -5.44133,0 -10.88369,-0.19949 -16.32501,0.0661 -2.78702,0.13282 -3.18439,-1.19536 -2.8526,-3.32044 0.39814,-3.05481 3.58305,-5.8445 6.70186,-5.8445 z m -70.339079,13.61382 h 78.036299 86.79628 c 6.43669,0 9.15658,2.78917 9.15658,9.29724 0,7.5042 0.79655,6.70833 -6.70186,6.70833 -27.73749,0.0664 -55.54133,0.0661 -83.27881,0.0661 H 67.671147 c -0.663576,0 -1.261054,0.0664 -1.92463,0 -2.521589,-0.26563 -6.767701,0.46409 -7.165846,-1.46177 -0.729934,-3.51967 -1.658941,-7.63702 0.995364,-11.28951 1.924371,-2.65635 4.445443,-3.32044 7.431536,-3.32044 z"
		   id="path4584"
		   style="fill:#2a2a2a;fill-opacity:1;stroke-width:0.66383237" />
		<path
		   d="m 149.95459,227.36243 c -15.85947,0.79691 -31.45377,3.91761 -46.38423,9.76159 -18.513776,7.30497 -35.435227,17.19989 -49.370327,31.5442 -10.484505,10.82465 -18.51274,23.57489 -24.816713,37.25512 -8.560133,18.59448 -14.001458,37.9869 -13.603312,58.50724 0.26543,15.20763 3.914322,29.88295 9.488361,44.09445 7.166623,18.39525 17.053908,35.2631 31.188082,49.14255 10.949007,10.75824 23.888742,18.86115 37.823842,25.30281 18.381057,8.50034 37.691127,13.87868 58.062917,13.48022 15.19589,-0.33204 29.86119,-3.91734 44.06172,-9.49569 18.38106,-7.23856 35.16953,-17.06707 49.10463,-31.21216 10.74994,-10.89105 18.84531,-23.84104 25.282,-37.7869 8.56013,-18.59448 14.00171,-37.98561 13.53721,-58.50595 -0.33179,-15.20763 -3.98172,-29.95065 -9.55576,-44.09574 -7.36569,-18.46166 -17.25272,-35.39644 -31.58596,-49.3423 -10.8163,-10.4926 -23.5567,-18.46192 -37.22637,-24.83717 -17.71748,-8.2347 -36.29787,-12.74973 -56.00609,-13.81227 z m -0.20736,27.77499 c 1.48475,0.0166 2.9949,0.51493 4.38841,1.51106 11.08172,8.03547 22.16345,16.07094 33.17881,24.23923 9.48914,7.03934 18.84505,14.21176 28.33418,21.18469 2.78702,2.19149 6.17126,3.65249 8.95828,6.97293 H 149.22492 74.174711 c 10.749934,-8.03547 21.234179,-16.00479 31.917759,-23.84104 13.07245,-9.62928 26.14516,-19.25805 39.41668,-28.68811 1.29397,-0.92972 2.75332,-1.39536 4.23808,-1.37876 z m -83.867221,58.44887 c 0.447914,0.008 0.895828,0.0415 1.327152,0.0415 H 230.513 c 2.12344,0 4.17975,0.1323 6.17048,0.79639 2.9861,0.92972 5.30861,4.24991 4.97682,7.03908 -0.33178,3.05481 -3.45007,5.84424 -6.76796,5.91065 -9.48914,0.0664 -19.04463,0 -28.53377,0 H 149.6889 65.548221 c -1.791656,0 -3.584347,-0.0669 -5.044214,-1.19588 -2.189802,-1.72663 -3.715768,-3.98376 -3.052192,-6.83934 0.862649,-3.65248 3.849518,-4.91425 7.101041,-5.64475 0.431325,-0.0996 0.879239,-0.11596 1.327153,-0.10766 z m 1.476198,18.07956 c 0.895828,0.0415 1.907264,0.32374 2.703555,0.29054 4.645034,-0.13282 9.357201,0 14.068592,0 5.441324,0 10.882131,0.0667 16.389816,-0.0661 2.1898,-0.0664 2.78676,0.66357 2.7204,2.78866 -0.13271,3.85171 -2.98532,6.97241 -7.165845,7.10523 -7.763841,0.13282 -15.461325,0.13307 -23.225166,-0.0661 -1.791656,-0.0664 -3.915617,-0.66357 -5.176412,-1.79252 -1.990729,-1.72663 -3.185166,-4.51658 -2.322517,-7.10652 0.331788,-0.99613 1.111749,-1.19458 2.007577,-1.15308 z m 98.590313,0.22439 c 2.65431,-0.13282 2.91948,1.12817 2.7204,3.18684 -0.39814,3.32045 -3.84874,6.70808 -7.29933,6.77449 -7.63113,0.13281 -15.19486,0.13281 -22.82599,0 -4.77775,-0.13282 -7.83123,-3.18841 -8.03031,-7.10653 -0.0663,-2.12508 0.5319,-2.85506 2.7217,-2.78865 5.50768,0.0664 10.94849,0 16.38982,0 5.44132,0 10.88239,0.13307 16.32371,-0.0661 z m 37.43114,0.0376 c 3.90992,-0.009 7.79158,0.0286 11.6735,0.0286 h 15.92583 c 3.05245,0 4.24662,1.46074 3.05219,4.05068 -1.52623,3.25404 -3.71551,5.8445 -7.76333,5.8445 h -23.15906 c -3.38424,0 -5.37445,-2.32457 -6.76796,-4.91452 -1.59259,-2.85558 -0.0669,-4.98066 3.11829,-4.98066 1.31056,-0.0166 2.61723,-0.0254 3.92054,-0.0286 z m -127.809698,14.3726 c 5.839471,0.19923 11.6792,0.0661 17.51867,0.0661 2.587947,0 3.184648,0.53153 2.786502,3.58634 -0.729933,5.64476 -0.398663,11.42181 -0.19959,17.06656 0.132715,3.32044 -0.264395,6.7737 0.06739,9.96133 0.530861,5.44553 -0.465021,10.6926 -0.199591,16.07172 0.265431,5.04707 -2.58e-4,10.16082 0.06609,15.20789 0.06636,2.05867 -0.397887,2.92121 -2.720404,2.8548 -5.83947,-0.13281 -11.6792,-0.13281 -17.51867,0 -2.256159,0.0664 -2.786761,-0.72972 -2.720403,-2.8548 0.06636,-9.7621 0.06609,-19.65702 0.06609,-29.55194 0,-9.76211 0.06662,-19.52499 -0.06609,-29.3535 0,-2.2579 0.464762,-3.12095 2.919994,-3.05455 z m 147.977488,0 c 2.1898,-0.0664 3.05219,0.39871 3.05219,2.92225 -0.13271,19.65702 -0.0661,39.38071 -0.0661,59.03774 0,1.5274 0.26491,2.98736 -2.19032,2.92095 -6.90119,-0.0664 -13.86848,0 -21.30054,0 0.86265,-1.66022 0.66358,-2.92121 0.66358,-4.18298 v -53.99092 c 0,-6.64089 5.2e-4,-6.64089 6.50356,-6.64089 4.44596,0 8.89167,0.13308 13.33763,-0.0661 z m -83.29436,0.0636 c 0.24314,-0.0153 0.51271,-0.014 0.81132,0.003 5.70676,0.19923 11.41403,0.13282 17.12079,0 1.99073,-0.0664 2.91999,0.33205 2.91999,2.65636 -0.0664,19.85624 -0.0664,39.64583 0,59.50207 0,2.1915 -0.66435,2.79021 -2.7878,2.7238 -5.57404,-0.13281 -11.14756,-0.19922 -16.7216,0 -2.58795,0.0664 -3.45137,-0.53127 -3.45137,-3.32044 0.13271,-9.7621 0.0674,-19.52524 0.0674,-29.28734 0,-9.7621 0.0653,-19.52395 -0.0674,-29.28605 0,-1.97566 0.4067,-2.88386 2.10867,-2.991 z M 96.8024,415.6977 c 3.4506,-0.0664 4.97604,2.25816 6.17048,4.58247 1.45987,2.85558 0.0671,4.64862 -3.184387,4.64862 h -16.05932 c -5.30861,0 -10.683318,-0.13308 -15.991927,0.0661 -2.720663,0.13282 -2.919736,-1.19587 -2.654305,-3.18814 0.331788,-3.12122 3.450855,-5.97654 6.569663,-6.04295 8.36106,0 16.788736,0.13308 25.149796,-0.0661 z m 130.19313,0.0661 c 2.52159,0 4.31376,1.12921 5.83999,2.92225 1.32715,1.52741 1.85723,3.45326 1.19366,5.31271 -0.66358,1.85945 -2.65431,0.86358 -3.98146,0.92998 -4.91046,0.0664 -9.88625,0 -14.86307,0 -5.44133,0 -10.94978,-0.13307 -16.39111,0.0661 -2.6543,0.13281 -2.98583,-1.06203 -2.7204,-3.1207 0.33179,-3.12122 3.38449,-6.04424 6.56966,-6.04424 8.09563,0 16.2571,0.0667 24.35273,-0.0661 z m -89.64888,0.0662 h 24.68451 c 3.11881,0 6.30501,2.78969 6.70316,5.8445 0.26543,2.19149 -0.13298,3.45326 -2.92,3.32044 -5.37496,-0.19923 -10.68332,-0.0661 -15.99192,-0.0661 -5.44133,0 -10.88369,-0.19949 -16.32501,0.0661 -2.78702,0.13282 -3.18439,-1.19536 -2.8526,-3.32044 0.39814,-3.05481 3.58305,-5.8445 6.70186,-5.8445 z m -70.339079,13.61382 h 78.036299 86.79628 c 6.43669,0 9.15658,2.78917 9.15658,9.29724 0,7.5042 0.79655,6.70833 -6.70186,6.70833 -27.73749,0.0664 -55.54133,0.0661 -83.27881,0.0661 H 67.671147 c -0.663576,0 -1.261054,0.0664 -1.92463,0 -2.521589,-0.26563 -6.767701,0.46409 -7.165846,-1.46177 -0.729934,-3.51967 -1.658941,-7.63702 0.995364,-11.28951 1.924371,-2.65635 4.445443,-3.32044 7.431536,-3.32044 z"
		   id="path4586"
		   style="stroke-width:0.66383237" />
	</g>
  <text x="320" y="125" dominant-baseline="central" font-family="Segoe UI Light" font-size="200" fill="#00887a">
    ClearGov
  </text>
</svg>