<?xml version="1.0" encoding="utf-8"?>
<!-- Generator: Adobe Illustrator 22.0.0, SVG Export Plug-In . SVG Version: 6.00 Build 0)  -->
<svg version="1.1" id="Layer_1" xmlns="http://www.w3.org/2000/svg" xmlns:xlink="http://www.w3.org/1999/xlink" x="0px" y="0px"
	 viewBox="0 0 512 512" style="enable-background:new 0 0 512 512;" xml:space="preserve">
<style type="text/css">
	.st0{display:none;fill:#FFFFFF;}
	.st1{fill:#34A8DC;}
	.st2{fill:#FFFFFF;}
	.st3{fill:#35A9DC;}
</style>
<g>
	<path class="st0" d="M0.4,512.4c0-170.7,0-341.3,0-512c170.7,0,341.3,0,512,0c0,170.7,0,341.3,0,512
		C341.8,512.4,171.1,512.4,0.4,512.4z M507.3,256.6C507.6,119.1,396.4,7.7,260,5.9C121.1,4.2,6.2,116.1,6.1,256.5
		c0,138.6,112.1,250.6,250.6,250.6C396.7,507.1,507.7,393.3,507.3,256.6z"/>
	<path class="st1" d="M507.3,256.6c0.4,136.7-110.6,250.6-250.6,250.6c-138.5,0-250.6-112-250.6-250.6C6.2,116.1,121.1,4.2,260,5.9
		C396.4,7.7,507.6,119.1,507.3,256.6z M406.2,257.6c0-45.2,0-90.3,0-135.5c0-5.9,0.1-11.9,0-17.8c-0.1-5.2-2.6-8.9-7.1-11.3
		c-2.1-1.1-4.4-1.3-6.7-1.3c-84,0-168.1,0-252.1,0c-0.4,0-0.9,0-1.3,0c-6.2-0.2-12.6,4.9-12.7,12.6c-0.1,8.7,0,17.3,0,26
		c0,1.7,0,1.7,1.9,1.7c3.8,0,7.7,0,11.5,0c3.8,0,7.3,0.9,10.5,2.9c11.5,7.2,16.9,17.7,16,31.2c-0.5,8.2-4,15.2-9.8,20.9
		c-5,5-11,7.9-18.3,7.6c-3.3-0.1-6.6,0-10,0c-1.8,0-1.9,0-1.9,1.7c0,11.6,0,23.1,0,34.7c0,1.6,0,1.6,1.7,1.6c4,0,7.9,0,11.9,0
		c2.7,0,5.2,0.5,7.6,1.5c11.5,4.8,19.5,17.9,18.8,31.3c-0.4,7.9-3.3,14.9-8.7,20.8c-5.2,5.7-11.4,9.2-19.4,8.9
		c-3.4-0.1-6.8,0-10.2,0c-1.7,0-1.8,0-1.8,1.8c0,4.6,0,9.2,0,13.9c0,6.9,0,13.9,0,20.8c0,2.1,0,2.1,2.2,2.1c3.5,0,7.1,0.1,10.6,0
		c4.2-0.1,8.1,0.9,11.5,3.1c10.5,6.7,15.8,16.5,15.7,28.9c-0.1,9.3-3.8,17.3-10.7,23.6c-4.8,4.4-10.3,7.1-17,6.9
		c-3.5-0.2-7.1,0-10.6,0c-1.7,0-1.8,0-1.8,1.8c0,4,0,8.1,0,12.1c0.1,6.2,4,11.1,9.9,12.6c1.5,0.4,3,0.3,4.5,0.3
		c83.7,0,167.5,0,251.2,0c0.7,0,1.4,0,2.2,0c3.8-0.1,6.8-1.7,9.2-4.6c2.2-2.6,3-5.7,3-9C406.2,358.9,406.2,308.2,406.2,257.6z
		 M119.2,146.5c-5.3,0-10.7,0-16,0c-2.9,0-5.6,0.8-8,2.4c-6,4-8.4,9.8-7.6,16.8c1,8.8,8.2,14.7,16,14.7c10.5-0.1,20.9,0,31.4,0
		c3.4,0,6.4-1,9.1-3c5.1-3.9,7.3-9.2,6.8-15.5c-0.6-8.4-7.5-15.4-16.1-15.3C129.6,146.6,124.4,146.5,119.2,146.5z M119.1,280.9
		c5.3,0,10.7,0,16,0c3.3,0,6.4-1,9.1-3c7.1-5.3,9-15.6,4.2-23.1c-3-4.7-7.2-7.5-12.8-7.6c-10.9-0.1-21.8-0.1-32.7,0
		c-3,0-5.8,1-8.3,2.8c-5.3,3.9-7.4,9.2-7.1,15.6c0.5,8.7,7.5,15.4,16.2,15.4C108.8,280.9,114,280.9,119.1,280.9z M119.2,382
		c5.3,0,10.7,0,16,0c3.4,0,6.4-1,9.1-3.1c5.3-4.1,7.2-9.5,6.6-16c-0.7-8.2-7.8-14.7-16-14.7c-10.5,0-20.9,0-31.4,0
		c-2.6,0-5,0.5-7.3,1.8c-6.1,3.6-8.9,9-8.7,16c0.2,8.3,7.1,16.2,16.3,16C108.9,381.9,114,382,119.2,382z"/>
	<path class="st2" d="M406.2,257.6c0,50.7,0,101.3,0,152c0,3.4-0.8,6.4-3,9c-2.4,2.8-5.5,4.4-9.2,4.6c-0.7,0-1.4,0-2.2,0
		c-83.7,0-167.5,0-251.2,0c-1.5,0-3,0.1-4.5-0.3c-5.9-1.5-9.9-6.4-9.9-12.6c-0.1-4,0-8.1,0-12.1c0-1.8,0-1.8,1.8-1.8
		c3.5,0,7.1-0.1,10.6,0c6.7,0.3,12.2-2.4,17-6.9c6.8-6.4,10.6-14.3,10.7-23.6c0.1-12.4-5.2-22.2-15.7-28.9
		c-3.5-2.2-7.4-3.2-11.5-3.1c-3.5,0.1-7.1,0-10.6,0c-2.1,0-2.2,0-2.2-2.1c0-6.9,0-13.9,0-20.8c0-4.6,0-9.2,0-13.9
		c0-1.8,0-1.8,1.8-1.8c3.4,0,6.8-0.1,10.2,0c8,0.3,14.2-3.2,19.4-8.9c5.4-5.9,8.3-12.9,8.7-20.8c0.7-13.4-7.4-26.5-18.8-31.3
		c-2.4-1-4.9-1.6-7.6-1.5c-4,0.1-7.9,0-11.9,0c-1.7,0-1.7,0-1.7-1.6c0-11.6,0-23.1,0-34.7c0-1.7,0-1.7,1.9-1.7c3.3,0,6.7-0.1,10,0
		c7.3,0.3,13.2-2.6,18.3-7.6c5.8-5.7,9.3-12.7,9.8-20.9c0.9-13.5-4.5-24-16-31.2c-3.2-2-6.7-2.9-10.5-2.9c-3.8,0-7.7,0-11.5,0
		c-1.8,0-1.9,0-1.9-1.7c0-8.7-0.1-17.3,0-26c0.1-7.7,6.5-12.9,12.7-12.6c0.4,0,0.9,0,1.3,0c84,0,168.1,0,252.1,0
		c2.3,0,4.6,0.1,6.7,1.3c4.6,2.4,7,6.1,7.1,11.3c0.1,5.9,0,11.8,0,17.8C406.2,167.3,406.2,212.4,406.2,257.6z M357.2,204.8
		c0.3-3.9-0.7-7.9-1.3-12c-1.2-7.8-4-15.2-7.7-22.2c-3.7-7.1-8.8-13.2-14.6-18.7c-4.7-4.5-10.1-8.1-15.9-11.1
		c-6.7-3.4-13.7-5.8-21.1-6.9c-4.3-0.6-8.5-1.5-12.9-1.4c-1.5,0-2.8,0.7-4.2,0.7c-3.5,0-6.9,0.7-10.2,1.4c-4.6,1-9.1,2.6-13.5,4.5
		c-9.1,4-16.8,9.7-23.6,16.8c-2.8,3-5.3,6.3-7.6,9.7c-3.7,5.6-6.6,11.7-8.6,18.1c-1,3.1-1.6,6.3-2.3,9.5c-0.7,3.1-0.2,6.4-1.3,9.5
		c-0.1,0.3,0,0.7,0,1.1c-0.1,2.5,0.2,4.9,0.6,7.3c0.8,5.5,1.6,11,3.3,16.3c1.7,5.1,3.9,9.9,6.6,14.5c2.5,4.2,5.3,8.1,8.7,11.6
		c2.3,2.4,4.8,4.8,7.4,7c6.2,5.3,13.1,9.1,20.6,12.1c4.8,1.9,9.8,3.1,14.8,3.9c3.5,0.5,6.9,1.2,10.5,1c2.6-0.1,5.1-0.4,7.7-0.7
		c7-0.9,13.8-2.6,20.4-5.4c8.6-3.6,16.2-8.8,22.8-15.4c6.6-6.6,11.8-14.3,15.4-23c2-4.7,3.5-9.6,4.3-14.7
		C356.4,213.9,357.3,209.5,357.2,204.8z"/>
	<path class="st2" d="M119.2,146.5c5.2,0,10.4,0.1,15.6,0c8.6-0.1,15.5,6.9,16.1,15.3c0.5,6.4-1.6,11.6-6.8,15.5c-2.7,2-5.7,3-9.1,3
		c-10.5,0-20.9-0.1-31.4,0c-7.8,0.1-15-5.9-16-14.7c-0.8-7,1.6-12.8,7.6-16.8c2.4-1.6,5.1-2.4,8-2.4
		C108.5,146.5,113.9,146.5,119.2,146.5z"/>
	<path class="st2" d="M119.1,280.9c-5.1,0-10.3,0-15.4,0c-8.7,0-15.7-6.8-16.2-15.4c-0.4-6.5,1.8-11.8,7.1-15.6
		c2.4-1.8,5.2-2.7,8.3-2.8c10.9,0,21.8-0.1,32.7,0c5.6,0.1,9.9,2.9,12.8,7.6c4.7,7.6,2.8,17.9-4.2,23.1c-2.7,2-5.7,3-9.1,3
		C129.8,280.9,124.4,280.9,119.1,280.9z"/>
	<path class="st2" d="M119.2,382c-5.1,0-10.3-0.1-15.4,0c-9.2,0.2-16.1-7.7-16.3-16c-0.2-7,2.6-12.5,8.7-16c2.2-1.3,4.7-1.8,7.3-1.8
		c10.5,0,20.9,0,31.4,0c8.2,0,15.3,6.5,16,14.7c0.6,6.5-1.4,12-6.6,16c-2.6,2-5.7,3.1-9.1,3.1C129.8,382,124.5,382,119.2,382z"/>
	<path class="st3" d="M357.2,204.8c0.2,4.7-0.8,9.1-1.6,13.5c-0.9,5.1-2.3,9.9-4.3,14.7c-3.6,8.7-8.8,16.4-15.4,23
		c-6.6,6.6-14.2,11.8-22.8,15.4c-6.6,2.8-13.4,4.4-20.4,5.4c-2.6,0.3-5.1,0.6-7.7,0.7c-3.6,0.2-7-0.5-10.5-1c-5.1-0.8-10-2-14.8-3.9
		c-7.5-2.9-14.4-6.8-20.6-12.1c-2.6-2.2-5-4.5-7.4-7c-3.4-3.5-6.2-7.4-8.7-11.6c-2.7-4.6-5-9.4-6.6-14.5c-1.7-5.3-2.5-10.8-3.3-16.3
		c-0.3-2.4-0.7-4.8-0.6-7.3c0-0.4-0.1-0.8,0-1.1c1-3.1,0.6-6.4,1.3-9.5c0.7-3.2,1.3-6.4,2.3-9.5c2-6.4,4.8-12.5,8.6-18.1
		c2.3-3.4,4.7-6.7,7.6-9.7c6.8-7.1,14.5-12.8,23.6-16.8c4.4-1.9,8.9-3.5,13.5-4.5c3.4-0.7,6.8-1.4,10.2-1.4c1.4,0,2.8-0.6,4.2-0.7
		c4.4-0.1,8.6,0.8,12.9,1.4c7.4,1.1,14.4,3.4,21.1,6.9c5.8,3,11.2,6.6,15.9,11.1c5.8,5.5,10.8,11.6,14.6,18.7
		c3.7,7,6.4,14.3,7.7,22.2C356.4,196.9,357.5,200.9,357.2,204.8z M284.9,213.3C284.9,213.3,284.9,213.4,284.9,213.3
		c1.4,0,2.7,0,4.1,0c1.6,0,1.8-0.2,1.9-1.6c0-0.4,0-0.7,0-1.1c0-3.7,1.4-6.6,4.6-8.8c2.6-1.8,5.2-3.6,7.5-5.8c2.2-2.2,4-4.7,5-7.7
		c1-3.1,0.9-6.1,0.3-9.2c-1.2-6.6-4.3-12-10.5-15.3c-2.5-1.3-5.2-2-8-2.3c-4.9-0.7-9.8-0.2-14.5,1.6c-5,1.9-8.4,5.5-10.5,10.3
		c-1.4,3.3-2,6.7-2,10.3c0,0.7,0.1,1.3,1.1,1.2c3.2-0.4,6.3-0.2,9.5-0.2c1.2,0,1.7-0.5,1.8-1.6c0.1-1,0.1-2,0.3-3
		c0.6-3.5,2.1-6.3,5.8-7.6c2.6-0.9,5.1-0.8,7.7-0.5c3.8,0.5,7,4,7.2,8.1c0.1,1.4,0.1,2.7,0,4.1c-0.2,3-1.4,5.4-4.3,6.7
		c-1,0.5-2,1.1-3,1.7c-6.1,3.9-9.5,9.5-10.2,16.7c-0.1,1,0.1,2,0.3,3c0.2,0.9,0.7,1.2,1.5,1.2C281.8,213.3,283.4,213.3,284.9,213.3z
		 M346.3,205.2c-0.3-2.8-0.7-5.7-2.6-8.2c-2-2.6-4.6-4.3-7.5-5.6c-3-1.4-6.2-2.1-9.5-1.4c-3.1,0.7-5.9,2.2-7.9,4.9
		c-0.5,0.7-1,1.4-1.5,2.1c-1.2,1.5-1,2.3,0.7,3.2c1,0.5,1.9,1,2.9,1.4c3,1.4,2.7,1.5,4.5-1.1c2-3,4.8-3.7,7.9-2.4
		c0.9,0.4,1.7,0.8,2.5,1.3c2.1,1.5,2.9,4,2,6.5c-0.3,0.9-0.7,1.7-1.2,2.5c-1.1,2-2.7,3.2-5,3.1c-2-0.1-4,0.2-5.9,0.9
		c-3.7,1.2-6.4,3.6-8.1,7c-0.7,1.4-0.4,1.9,0.8,2.6c1.2,0.7,2.4,1.3,3.6,1.9c2,1,2.2,1,3.4-1c1.1-1.8,2.6-3,4.7-3.4
		c1.6-0.3,3.3-0.5,4.9-0.8c3-0.6,5.7-1.7,7.7-4C345.1,212.2,346,208.9,346.3,205.2z M243.6,187.2c-3.5,0-6.6,1-9.7,2.6
		c-6.7,3.3-8.6,11-6.5,17.2c0.3,0.9,0.8,1.4,1.8,1.1c1.8-0.6,3.6-1.2,5.3-1.8c0.9-0.3,1.4-0.8,1.1-2c-0.3-1-0.4-2.1-0.5-3.2
		c-0.1-1.4,0.3-2.7,1.4-3.7c1.8-1.8,4.1-2.6,6.6-2.7c0.7,0,1.2,0.2,1.8,0.5c2.7,1.1,3.5,3.5,4,6c0.4,1.8,0.1,3.4-1.3,4.8
		c-1.7,1.8-3.2,3.7-4.1,6c-1.4,3.3-1.3,6.5-0.1,9.7c0.5,1.5,0.8,1.6,2.3,1.2c1.5-0.4,2.9-0.8,4.4-1.3c1.9-0.7,2-0.8,1.4-2.8
		c-0.7-2.3-0.4-4.4,1.1-6.3c0.9-1.1,1.6-2.4,2.5-3.6c1.7-2.4,2.7-5.1,2.7-8.1c0-2.3-0.9-4.2-1.9-6.1
		C253.2,189.8,249.2,187.2,243.6,187.2z M285,221.5C285,221.5,285,221.5,285,221.5c-1.6,0-3.2,0-4.7,0.1c-1.3,0.1-1.8,0.6-1.7,1.9
		c0.2,2.4,0,4.7,0.1,7.1c0,0.6,0.1,1.3,0.2,1.9c0.1,0.7,0.5,1.1,1.3,1.1c3,0,6,0,9.1,0c1.3,0,1.7-0.5,1.7-1.8c0-2.9,0-5.9,0-8.8
		c0-1.1-0.5-1.6-1.6-1.6C287.8,221.5,286.4,221.5,285,221.5z M317.2,236.8c0.8-0.1,1.2-0.6,1.5-1.2c0.8-1.5,1.4-3,2.5-4.3
		c0.7-0.8,0.5-1.6-0.4-2.1c-1.8-1-3.6-1.9-5.3-2.8c-0.7-0.4-1.3-0.2-1.6,0.5c-1,1.7-1.9,3.5-2.8,5.3c-0.4,0.8-0.2,1.4,0.6,1.8
		c1.7,0.9,3.3,1.8,5,2.6C316.7,236.6,317,236.7,317.2,236.8z M255.7,232.5c-0.5-1.7-1-3.8-2-5.8c-0.4-0.7-1.1-0.6-1.7-0.4
		c-1.6,0.5-3.3,1-4.9,1.5c-0.7,0.2-1.4,0.7-1.2,1.5c0.6,2.1,1.1,4.2,2.1,6.1c0.3,0.6,0.8,0.8,1.6,0.5c1.7-0.6,3.4-1.1,5.2-1.6
		C255.5,234.2,255.8,233.7,255.7,232.5z"/>
	<path class="st2" d="M284.9,213.3c-1.5,0-3,0-4.5,0c-0.8,0-1.3-0.3-1.5-1.2c-0.3-1-0.4-2-0.3-3c0.7-7.2,4.1-12.8,10.2-16.7
		c1-0.6,2-1.2,3-1.7c2.9-1.3,4.1-3.7,4.3-6.7c0.1-1.4,0.1-2.7,0-4.1c-0.2-4.1-3.4-7.6-7.2-8.1c-2.6-0.3-5.1-0.4-7.7,0.5
		c-3.7,1.3-5.1,4.1-5.8,7.6c-0.2,1-0.2,2-0.3,3c-0.1,1.1-0.5,1.6-1.8,1.6c-3.2,0-6.3-0.2-9.5,0.2c-0.9,0.1-1-0.5-1.1-1.2
		c-0.1-3.6,0.6-7.1,2-10.3c2.1-4.8,5.5-8.4,10.5-10.3c4.7-1.8,9.5-2.2,14.5-1.6c2.8,0.4,5.5,1,8,2.3c6.2,3.3,9.3,8.6,10.5,15.3
		c0.6,3.1,0.7,6.1-0.3,9.2c-1,3-2.7,5.5-5,7.7c-2.3,2.2-4.9,4.1-7.5,5.8c-3.1,2.2-4.6,5.1-4.6,8.8c0,0.4,0,0.7,0,1.1
		c-0.1,1.5-0.3,1.6-1.9,1.6C287.6,213.4,286.2,213.4,284.9,213.3C284.9,213.4,284.9,213.3,284.9,213.3z"/>
	<path class="st2" d="M346.3,205.2c-0.3,3.7-1.2,7-3.6,9.7c-2,2.3-4.8,3.4-7.7,4c-1.6,0.3-3.3,0.5-4.9,0.8c-2.1,0.4-3.6,1.6-4.7,3.4
		c-1.2,1.9-1.4,2-3.4,1c-1.2-0.6-2.4-1.3-3.6-1.9c-1.3-0.7-1.5-1.3-0.8-2.6c1.7-3.5,4.3-5.9,8.1-7c1.9-0.6,3.9-0.9,5.9-0.9
		c2.4,0.1,3.9-1.1,5-3.1c0.5-0.8,0.9-1.7,1.2-2.5c0.9-2.5,0.1-5-2-6.5c-0.8-0.5-1.6-1-2.5-1.3c-3.1-1.3-5.9-0.6-7.9,2.4
		c-1.7,2.5-1.4,2.5-4.5,1.1c-1-0.5-2-0.9-2.9-1.4c-1.7-0.9-1.9-1.7-0.7-3.2c0.5-0.7,1-1.4,1.5-2.1c2-2.7,4.8-4.2,7.9-4.9
		c3.3-0.7,6.4-0.1,9.5,1.4c2.9,1.4,5.5,3.1,7.5,5.6C345.6,199.5,346,202.4,346.3,205.2z"/>
	<path class="st2" d="M243.6,187.2c5.6-0.1,9.6,2.6,12.2,7.5c1,1.9,1.9,3.9,1.9,6.1c0,3-1,5.7-2.7,8.1c-0.8,1.2-1.6,2.4-2.5,3.6
		c-1.5,1.9-1.8,4-1.1,6.3c0.6,2,0.5,2.1-1.4,2.8c-1.4,0.5-2.9,0.9-4.4,1.3c-1.5,0.4-1.8,0.3-2.3-1.2c-1.1-3.2-1.2-6.4,0.1-9.7
		c1-2.3,2.4-4.3,4.1-6c1.4-1.4,1.7-3,1.3-4.8c-0.6-2.5-1.3-4.9-4-6c-0.6-0.3-1.2-0.5-1.8-0.5c-2.6,0-4.8,0.9-6.6,2.7
		c-1,1-1.5,2.3-1.4,3.7c0.1,1.1,0.1,2.2,0.5,3.2c0.3,1.1-0.2,1.7-1.1,2c-1.8,0.6-3.5,1.2-5.3,1.8c-1,0.3-1.5-0.2-1.8-1.1
		c-2.1-6.2-0.2-13.9,6.5-17.2C236.9,188.2,240.1,187.2,243.6,187.2z"/>
	<path class="st2" d="M285,221.5c1.4,0,2.9,0,4.3,0c1.1,0,1.6,0.5,1.6,1.6c0,2.9,0,5.9,0,8.8c0,1.3-0.4,1.7-1.7,1.8
		c-3,0.1-6,0-9.1,0c-0.8,0-1.2-0.4-1.3-1.1c-0.1-0.6-0.2-1.3-0.2-1.9c-0.1-2.4,0.1-4.7-0.1-7.1c-0.1-1.3,0.4-1.9,1.7-1.9
		C281.8,221.5,283.4,221.5,285,221.5C285,221.5,285,221.5,285,221.5z"/>
	<path class="st2" d="M317.2,236.8c-0.2-0.1-0.5-0.1-0.8-0.2c-1.7-0.9-3.3-1.8-5-2.6c-0.8-0.4-1-1-0.6-1.8c0.9-1.8,1.9-3.6,2.8-5.3
		c0.4-0.6,0.9-0.9,1.6-0.5c1.8,1,3.6,1.8,5.3,2.8c1,0.6,1.2,1.3,0.4,2.1c-1.1,1.3-1.7,2.8-2.5,4.3
		C318.4,236.2,318,236.7,317.2,236.8z"/>
	<path class="st2" d="M255.7,232.5c0.1,1.2-0.2,1.7-1,1.9c-1.7,0.5-3.5,1-5.2,1.6c-0.8,0.3-1.3,0.1-1.6-0.5c-1-1.9-1.5-4-2.1-6.1
		c-0.2-0.9,0.5-1.3,1.2-1.5c1.6-0.5,3.3-1,4.9-1.5c0.7-0.2,1.4-0.3,1.7,0.4C254.7,228.6,255.3,230.8,255.7,232.5z"/>
</g>
</svg>
